<svg xmlns="http://www.w3.org/2000/svg" xmlns:xlink="http://www.w3.org/1999/xlink" viewBox="0,0,256,256" width="40px" height="40px"><g transform="translate(38.4,38.4) scale(0.7,0.7)"><g fill="none" fill-rule="nonzero" stroke="#fffcfc" stroke-width="20.48" stroke-linecap="butt" stroke-linejoin="miter" stroke-miterlimit="10" stroke-dasharray="" stroke-dashoffset="0" font-family="none" font-weight="none" font-size="none" text-anchor="none" style="mix-blend-mode: normal"><path d="M38.82549,245.33489c-15.55254,0 -28.16037,-12.60783 -28.16037,-28.16037v-178.34903c0,-15.55254 12.60783,-28.16037 28.16037,-28.16037h178.34903c15.55254,0 28.16037,12.60783 28.16037,28.16037v178.34903c0,15.55254 -12.60783,28.16037 -28.16037,28.16037z" id="shape"></path></g><g fill="none" fill-rule="nonzero" stroke="none" stroke-width="none" stroke-linecap="butt" stroke-linejoin="none" stroke-miterlimit="10" stroke-dasharray="" stroke-dashoffset="0" font-family="none" font-weight="none" font-size="none" text-anchor="none" style="mix-blend-mode: normal"><path transform="translate(255.99744,0.00256) rotate(90) scale(5.12,5.12)" d="M10.999,8.835l0.001,-4.622l0.00186,0.00093l3.99814,-2.30793l24,13.856v4.619l-4,2.31zM10.999,34.238l0.001,-4.622l0.002,0.001l3.998,-2.308l24,13.857v4.619l-4,2.309zM10.999,21.537l0.001,-4.623l0.0019,0.0019l3.9981,-2.3079l24,13.856v4.619l-4,2.309z" id="strokeMainSVG" fill="#fdfbfb" stroke="#fdfbfb" stroke-width="2" stroke-linejoin="round"></path><g transform="translate(255.99744,0.00256) rotate(90) scale(5.12,5.12)" stroke="none" stroke-width="1" stroke-linejoin="miter"><path d="M15,1.906l-3.998,2.308l-0.002,-0.001l-0.001,4.622l24.001,13.856l4,-2.31v-4.619z" fill="#d9e4e6"></path><path d="M39,15.762l-24,-13.856l-4,2.309l24,13.857z" fill="#a2a9ab"></path><path d="M35,18.072v4.619l4,-2.31v-4.619z" fill="#3c4547"></path><path d="M15,27.309l-3.998,2.308l-0.002,-0.001l-0.001,4.622l24.001,13.856l4,-2.309v-4.619z" fill="#d9e4e6"></path><path d="M39,41.166l-24,-13.857l-4,2.31l24,13.856z" fill="#a2a9ab"></path><path d="M35,43.475v4.619l4,-2.309v-4.619z" fill="#3c4547"></path><path d="M15,14.608l-3.998,2.308l-0.002,-0.002l-0.001,4.623l24.001,13.855l4,-2.309v-4.619z" fill="#d9e4e6"></path><path d="M39,28.464l-24,-13.856l-4,2.309l24,13.857z" fill="#a2a9ab"></path><path d="M35,30.774v4.618l4,-2.309v-4.619z" fill="#3c4547"></path></g></g></g></svg>